<svg xmlns="http://www.w3.org/2000/svg" xmlns:xlink="http://www.w3.org/1999/xlink" width="30" height="30" viewBox="0 0 30 30">
  <defs>
    <clipPath id="clip-path">
      <rect id="Rectangle_3376" data-name="Rectangle 3376" width="30" height="30" transform="translate(153 4822)" fill="#c1c1c1" stroke="#c1c1c1" stroke-width="1"/>
    </clipPath>
  </defs>
  <g id="Mask_Group_222" data-name="Mask Group 222" transform="translate(-153 -4822)" clip-path="url(#clip-path)">
    <g id="Group_24488" data-name="Group 24488" transform="translate(1083.604 4562.186)">
      <path id="Path_10923" data-name="Path 10923" d="M-906.327,272.538c-.064.361-.109.727-.2,1.082a7.038,7.038,0,0,1-1.263,2.541,20.613,20.613,0,0,1-3.076,3.159q-1.967,1.711-3.947,3.407a1.08,1.08,0,0,1-1.537.031c-1.714-1.486-3.433-2.968-5.126-4.478a12.994,12.994,0,0,1-2.29-2.626,6.1,6.1,0,0,1-.729-5.646,4.894,4.894,0,0,1,3.836-3.343,4.778,4.778,0,0,1,4.839,1.851c.062.074.119.152.179.228a.436.436,0,0,0,.048.04c.069-.087.136-.176.207-.263a5.044,5.044,0,0,1,2.773-1.827,5.016,5.016,0,0,1,5.266,2.055,5.876,5.876,0,0,1,.986,2.763c.007.065.022.129.033.193Zm-9.277,9.429c.047-.037.086-.065.122-.1,1.465-1.267,2.94-2.523,4.392-3.8a15.291,15.291,0,0,0,2.732-2.981,5.144,5.144,0,0,0,.905-3.567,4.21,4.21,0,0,0-2.031-3.313,3.682,3.682,0,0,0-3.633-.176,4.452,4.452,0,0,0-1.724,1.587c-.064.095-.122.194-.19.286a.679.679,0,0,1-1.133,0,11.618,11.618,0,0,0-.806-1.042,3.6,3.6,0,0,0-3.552-1.124,3.882,3.882,0,0,0-2.967,2.689,5.066,5.066,0,0,0,.651,4.656,12.446,12.446,0,0,0,2.109,2.4c1.314,1.182,2.655,2.335,3.986,3.5C-916.369,281.315-915.988,281.637-915.6,281.967Z" transform="translate(0 0)" fill="#fff" stroke="#fff" stroke-width="0.5"/>
    </g>
  </g>
</svg>
